<svg viewBox="0 0 512 512" xmlns="http://www.w3.org/2000/svg">
  <defs>
    <linearGradient id="mainGradient" x1="0%" y1="0%" x2="100%" y2="100%">
      <stop offset="0%" style="stop-color:#4338ca;stop-opacity:1" />
      <stop offset="100%" style="stop-color:#7c3aed;stop-opacity:1" />
    </linearGradient>
    <radialGradient id="glassOverlay" cx="40%" cy="30%" r="60%">
      <stop offset="0%" style="stop-color:#ffffff;stop-opacity:0.25" />
      <stop offset="50%" style="stop-color:#ffffff;stop-opacity:0.08" />
      <stop offset="100%" style="stop-color:#ffffff;stop-opacity:0" />
    </radialGradient>
    <linearGradient id="innerShadow" x1="0%" y1="0%" x2="0%" y2="100%">
      <stop offset="0%" style="stop-color:#000000;stop-opacity:0.15" />
      <stop offset="50%" style="stop-color:#000000;stop-opacity:0" />
      <stop offset="100%" style="stop-color:#000000;stop-opacity:0.1" />
    </linearGradient>
    <linearGradient id="highlight" x1="50%" y1="0%" x2="50%" y2="100%">
      <stop offset="0%" style="stop-color:#ffffff;stop-opacity:0.35" />
      <stop offset="30%" style="stop-color:#ffffff;stop-opacity:0.08" />
      <stop offset="100%" style="stop-color:#ffffff;stop-opacity:0" />
    </linearGradient>
    <linearGradient id="scalesGradient" x1="0%" y1="0%" x2="0%" y2="100%">
      <stop offset="0%" style="stop-color:#ffffff;stop-opacity:1" />
      <stop offset="100%" style="stop-color:#f3f4f6;stop-opacity:1" />
    </linearGradient>
    <filter id="glassBlur">
      <feGaussianBlur in="SourceGraphic" stdDeviation="0.8" />
    </filter>
    <filter id="softShadow">
      <feGaussianBlur in="SourceAlpha" stdDeviation="4" />
      <feOffset dx="0" dy="2" result="offsetblur" />
      <feComponentTransfer>
        <feFuncA type="linear" slope="0.15" />
      </feComponentTransfer>
      <feMerge>
        <feMergeNode />
        <feMergeNode in="SourceGraphic" />
      </feMerge>
    </filter>
  </defs>
  <rect x="0" y="0" width="512" height="512" rx="112" ry="112" fill="url(#mainGradient)" />
  <rect x="0" y="0" width="512" height="512" rx="112" ry="112" fill="url(#innerShadow)" />
  <rect x="0" y="0" width="512" height="512" rx="112" ry="112" fill="url(#glassOverlay)" />
  <rect x="0" y="0" width="512" height="512" rx="112" ry="112" fill="url(#highlight)" />
  <ellipse cx="140" cy="120" rx="180" ry="160" fill="#ffffff" opacity="0.15" filter="url(#glassBlur)" />
  <ellipse cx="100" cy="80" rx="120" ry="100" fill="#ffffff" opacity="0.12" filter="url(#glassBlur)" />
  <g transform="translate(256, 256)">
    <rect x="-140" y="20" width="280" height="8" rx="4" fill="url(#scalesGradient)" opacity="0.95" />
    <polygon points="0,-30 -20,20 20,20" fill="url(#scalesGradient)" opacity="0.9" />
    <g>
      <rect x="-150" y="40" width="80" height="50" rx="8" fill="url(#scalesGradient)" opacity="0.92" />
      <rect x="-148" y="42" width="76" height="15" rx="6" fill="#ffffff" opacity="0.25" />
      <line x1="-110" y1="40" x2="-110" y2="-20" stroke="url(#scalesGradient)" stroke-width="5" stroke-linecap="round" opacity="0.85" />
    </g>
    <g>
      <rect x="70" y="40" width="80" height="50" rx="8" fill="url(#scalesGradient)" opacity="0.92" />
      <rect x="72" y="42" width="76" height="15" rx="6" fill="#ffffff" opacity="0.25" />
      <line x1="110" y1="40" x2="110" y2="-20" stroke="url(#scalesGradient)" stroke-width="5" stroke-linecap="round" opacity="0.85" />
    </g>
    <rect x="-8" y="20" width="16" height="55" rx="8" fill="url(#scalesGradient)" opacity="0.88" />
    <circle cx="-110" cy="70" r="6" fill="#ffffff" opacity="0.3" />
    <circle cx="110" cy="70" r="6" fill="#ffffff" opacity="0.3" />
    <rect x="-140" y="14" width="280" height="3" rx="1.5" fill="#ffffff" opacity="0.4" />
  </g>
  <ellipse cx="256" cy="420" rx="160" ry="80" fill="#7c3aed" opacity="0.15" filter="url(#glassBlur)" />
</svg>
